<svg width="194" height="60" viewBox="0 0 194 60" fill="none" xmlns="http://www.w3.org/2000/svg">
<path d="M0.816239 59V1.54545H14.703V47.7223H38.6049V59H0.816239ZM67.5805 1.54545V59H53.6938V1.54545H67.5805ZM115.254 18.7706C115.067 16.7133 114.235 15.1142 112.757 13.9734C111.298 12.8138 109.213 12.234 106.501 12.234C104.706 12.234 103.21 12.4678 102.013 12.9354C100.816 13.4029 99.9179 14.0482 99.3194 14.8711C98.7209 15.6753 98.4123 16.6011 98.3936 17.6484C98.3562 18.5088 98.5245 19.2662 98.8986 19.9208C99.2913 20.5754 99.8524 21.1552 100.582 21.6602C101.33 22.1464 102.228 22.5766 103.275 22.9506C104.322 23.3247 105.501 23.652 106.81 23.9325L111.747 25.0547C114.59 25.6719 117.096 26.4948 119.266 27.5234C121.454 28.5521 123.287 29.7771 124.764 31.1985C126.261 32.6199 127.392 34.2564 128.159 36.108C128.926 37.9595 129.318 40.0355 129.337 42.3359C129.318 45.9643 128.402 49.0782 126.588 51.6779C124.774 54.2776 122.165 56.2694 118.761 57.6534C115.376 59.0374 111.289 59.7294 106.501 59.7294C101.695 59.7294 97.5052 59.0094 93.933 57.5692C90.3608 56.1291 87.5835 53.9409 85.601 51.0046C83.6185 48.0683 82.5992 44.3558 82.5431 39.8672H95.8407C95.9529 41.7188 96.4485 43.2617 97.3275 44.4961C98.2066 45.7305 99.4129 46.6656 100.947 47.3015C102.499 47.9374 104.294 48.2553 106.333 48.2553C108.203 48.2553 109.793 48.0028 111.102 47.4979C112.43 46.9929 113.449 46.2915 114.16 45.3938C114.871 44.4961 115.235 43.4674 115.254 42.3079C115.235 41.2231 114.899 40.2973 114.244 39.5305C113.589 38.745 112.58 38.0717 111.214 37.5107C109.868 36.9309 108.147 36.3978 106.052 35.9116L100.049 34.5089C95.0739 33.368 91.1557 31.5258 88.2942 28.9822C85.4327 26.42 84.0113 22.96 84.03 18.6023C84.0113 15.0488 84.9651 11.9348 86.8915 9.2603C88.8178 6.58582 91.483 4.50047 94.8868 3.00426C98.2907 1.50805 102.172 0.759941 106.529 0.759941C110.98 0.759941 114.843 1.5174 118.116 3.03231C121.407 4.52853 123.96 6.63258 125.774 9.34446C127.588 12.0563 128.514 15.1984 128.552 18.7706H115.254ZM193.149 1.54545V59H181.366L158.502 25.8402H158.137V59H144.251V1.54545H156.202L178.813 34.6491H179.29V1.54545H193.149Z" fill="url(#paint0_linear_29_2)"/>
<defs>
<linearGradient id="paint0_linear_29_2" x1="-4.72115" y1="30.5" x2="250.447" y2="62.1912" gradientUnits="userSpaceOnUse">
<stop stop-color="#00D1FF"/>
<stop offset="0.520833" stop-color="#A20E9C" stop-opacity="0.71"/>
<stop offset="1" stop-color="#DC2B36" stop-opacity="0.46"/>
</linearGradient>
</defs>
</svg>
