<svg width="16" height="12" viewBox="0 0 16 12" fill="none" xmlns="http://www.w3.org/2000/svg">
<mask id="path-1-inside-1_3_13" fill="white">
<path fill-rule="evenodd" clip-rule="evenodd" d="M0.740693 11.2762C0.684553 11.2081 0.637246 11.1301 0.601204 11.0424C0.327413 10.3766 0.144678 9.67667 0.0580998 8.96167C0.020053 9.13505 1.02687e-07 9.31517 1.02687e-07 9.49997C1.02687e-07 10.1946 0.283313 10.8231 0.740693 11.2762ZM0.944387 11.4572C1.37132 11.7969 1.91195 12 2.5 12C3.88071 12 5 10.8807 5 9.49997C5 8.11926 3.88071 6.99997 2.5 6.99997C2.40494 6.99997 2.31112 7.00528 2.21881 7.01561C2.16374 7.33903 2.13571 7.6677 2.13561 7.99824C2.13541 8.6707 2.25083 9.33545 2.47431 9.96416C2.67181 10.5198 2.50729 11.1713 1.99659 11.4661C1.65432 11.6637 1.24479 11.6511 0.944387 11.4572ZM13.7814 7.01563C13.6656 6.33587 13.4305 5.67921 13.0841 5.07689C12.5707 4.18394 11.8312 3.44196 10.9399 2.92561C10.0487 2.40926 9.03715 2.13675 8.00712 2.13552C6.97709 2.13428 5.96491 2.40436 5.07242 2.91857C4.17992 3.43278 3.43861 4.17299 2.92306 5.06471C2.57295 5.67027 2.33535 6.3312 2.21881 7.01561C1.14991 7.13525 0.284741 7.92887 0.0580998 8.96167C0.0194827 8.64275 -5.61936e-06 8.32083 9.16554e-05 7.9976C0.000513179 6.5925 0.371005 5.21228 1.07429 3.99585C1.77757 2.77941 2.78883 1.76966 4.00632 1.0682C5.22381 0.366744 6.60458 -0.00167872 8.00968 5.75032e-06C9.41479 0.00169022 10.7947 0.373423 12.0105 1.0778C13.2263 1.78217 14.2351 2.79435 14.9355 4.01247C15.6358 5.23058 16.003 6.61168 16.0001 8.01678C15.9994 8.33376 15.9799 8.64943 15.942 8.9622C15.98 9.13542 16 9.31536 16 9.49997C16 10.181 15.7277 10.7984 15.286 11.2493C15.2056 11.3598 15.1032 11.4469 14.9878 11.5093C14.5721 11.8176 14.0573 12 13.5 12C12.1193 12 11 10.8807 11 9.49997C11 8.11926 12.1193 6.99997 13.5 6.99997C13.5951 6.99997 13.689 7.00529 13.7814 7.01563ZM14.9878 11.5093C15.094 11.4305 15.1937 11.3436 15.286 11.2493C15.3274 11.1924 15.363 11.1293 15.3917 11.0602C15.6694 10.3893 15.8546 9.68343 15.942 8.9622C15.7156 7.92921 14.8504 7.13537 13.7814 7.01563C13.8372 7.34365 13.8653 7.67704 13.8646 8.0123C13.8632 8.68476 13.7461 9.34923 13.5211 9.9774C13.3223 10.5326 13.4853 11.1844 13.9953 11.4805C14.315 11.6661 14.6939 11.6679 14.9878 11.5093ZM0.740693 11.2762C0.805228 11.3401 0.873228 11.4005 0.944387 11.4572C0.868599 11.4082 0.799758 11.3477 0.740693 11.2762Z"/>
</mask>
<path fill-rule="evenodd" clip-rule="evenodd" d="M0.740693 11.2762C0.684553 11.2081 0.637246 11.1301 0.601204 11.0424C0.327413 10.3766 0.144678 9.67667 0.0580998 8.96167C0.020053 9.13505 1.02687e-07 9.31517 1.02687e-07 9.49997C1.02687e-07 10.1946 0.283313 10.8231 0.740693 11.2762ZM0.944387 11.4572C1.37132 11.7969 1.91195 12 2.5 12C3.88071 12 5 10.8807 5 9.49997C5 8.11926 3.88071 6.99997 2.5 6.99997C2.40494 6.99997 2.31112 7.00528 2.21881 7.01561C2.16374 7.33903 2.13571 7.6677 2.13561 7.99824C2.13541 8.6707 2.25083 9.33545 2.47431 9.96416C2.67181 10.5198 2.50729 11.1713 1.99659 11.4661C1.65432 11.6637 1.24479 11.6511 0.944387 11.4572ZM13.7814 7.01563C13.6656 6.33587 13.4305 5.67921 13.0841 5.07689C12.5707 4.18394 11.8312 3.44196 10.9399 2.92561C10.0487 2.40926 9.03715 2.13675 8.00712 2.13552C6.97709 2.13428 5.96491 2.40436 5.07242 2.91857C4.17992 3.43278 3.43861 4.17299 2.92306 5.06471C2.57295 5.67027 2.33535 6.3312 2.21881 7.01561C1.14991 7.13525 0.284741 7.92887 0.0580998 8.96167C0.0194827 8.64275 -5.61936e-06 8.32083 9.16554e-05 7.9976C0.000513179 6.5925 0.371005 5.21228 1.07429 3.99585C1.77757 2.77941 2.78883 1.76966 4.00632 1.0682C5.22381 0.366744 6.60458 -0.00167872 8.00968 5.75032e-06C9.41479 0.00169022 10.7947 0.373423 12.0105 1.0778C13.2263 1.78217 14.2351 2.79435 14.9355 4.01247C15.6358 5.23058 16.003 6.61168 16.0001 8.01678C15.9994 8.33376 15.9799 8.64943 15.942 8.9622C15.98 9.13542 16 9.31536 16 9.49997C16 10.181 15.7277 10.7984 15.286 11.2493C15.2056 11.3598 15.1032 11.4469 14.9878 11.5093C14.5721 11.8176 14.0573 12 13.5 12C12.1193 12 11 10.8807 11 9.49997C11 8.11926 12.1193 6.99997 13.5 6.99997C13.5951 6.99997 13.689 7.00529 13.7814 7.01563ZM14.9878 11.5093C15.094 11.4305 15.1937 11.3436 15.286 11.2493C15.3274 11.1924 15.363 11.1293 15.3917 11.0602C15.6694 10.3893 15.8546 9.68343 15.942 8.9622C15.7156 7.92921 14.8504 7.13537 13.7814 7.01563C13.8372 7.34365 13.8653 7.67704 13.8646 8.0123C13.8632 8.68476 13.7461 9.34923 13.5211 9.9774C13.3223 10.5326 13.4853 11.1844 13.9953 11.4805C14.315 11.6661 14.6939 11.6679 14.9878 11.5093ZM0.740693 11.2762C0.805228 11.3401 0.873228 11.4005 0.944387 11.4572C0.868599 11.4082 0.799758 11.3477 0.740693 11.2762Z" fill="#302727"/>
<path d="M0.601204 11.0424L12.6244 6.09848L12.6244 6.09851L0.601204 11.0424ZM2.13561 7.99824L-10.8644 7.99435L-10.8644 7.99434L2.13561 7.99824ZM2.47431 9.96416L-9.77489 14.3181L-9.7749 14.3181L2.47431 9.96416ZM1.99659 11.4661L-4.5034 0.207788L-4.5034 0.207784L1.99659 11.4661ZM13.0841 5.07689L1.81415 11.5566L1.81415 11.5566L13.0841 5.07689ZM5.07242 2.91857L11.5623 14.1827L11.5623 14.1827L5.07242 2.91857ZM2.92306 5.06471L14.1775 11.5715L14.1775 11.5715L2.92306 5.06471ZM9.16554e-05 7.9976L13.0001 8.0015L13.0001 8.00151L9.16554e-05 7.9976ZM4.00632 1.0682L10.4962 12.3324L10.4962 12.3324L4.00632 1.0682ZM8.00968 5.75032e-06L8.02527 -13L8.00968 5.75032e-06ZM12.0105 1.0778L18.5273 -10.1708L18.5273 -10.1708L12.0105 1.0778ZM14.9355 4.01247L3.66548 10.4922L3.66548 10.4922L14.9355 4.01247ZM16.0001 8.01678L3.0001 7.98951L16.0001 8.01678ZM15.3917 11.0602L27.403 16.0329L27.403 16.033L15.3917 11.0602ZM13.8646 8.0123L26.8645 8.03958L26.8645 8.03958L13.8646 8.0123ZM13.5211 9.9774L25.7599 14.3607L25.7599 14.3607L13.5211 9.9774ZM13.9953 11.4805L20.5222 0.237785L20.5223 0.2378L13.9953 11.4805ZM12.6244 6.09851C12.1669 4.98581 11.5421 3.94043 10.7671 3.00139L-9.28568 19.5509C-10.173 18.4758 -10.8924 17.2744 -11.422 15.9864L12.6244 6.09851ZM12.9638 7.39894C12.9097 6.95204 12.7955 6.51465 12.6244 6.09848L-11.422 15.9864C-12.1407 14.2386 -12.6204 12.4013 -12.8476 10.5244L12.9638 7.39894ZM12.756 11.7481C12.9174 11.0122 13 10.2582 13 9.49997H-13C-13 8.37212 -12.8773 7.25788 -12.6398 6.17524L12.756 11.7481ZM13 9.49997C13 6.58563 11.7956 3.92845 9.88936 2.04026L-8.40797 20.5121C-11.2289 17.7177 -13 13.8036 -13 9.49997H13ZM9.03986 1.28546C7.24878 -0.14003 4.95691 -1.00003 2.5 -1.00003V25C-1.13301 25 -4.50614 23.7339 -7.15108 21.6288L9.03986 1.28546ZM2.5 -1.00003C-3.29899 -1.00003 -8 3.70098 -8 9.49997H18C18 18.0604 11.0604 25 2.5 25V-1.00003ZM-8 9.49997C-8 15.299 -3.29899 20 2.5 20V-6.00003C11.0604 -6.00003 18 0.93956 18 9.49997H-8ZM2.5 20C2.88927 20 3.27821 19.9782 3.66489 19.9349L0.772736 -5.90371C1.34402 -5.96765 1.92061 -6.00003 2.5 -6.00003V20ZM-10.8644 7.99434C-10.8641 6.93117 -10.7739 5.87387 -10.5967 4.83343L15.0344 9.1978C15.1014 8.8042 15.1355 8.40423 15.1356 8.00214L-10.8644 7.99434ZM-9.7749 14.3181C-10.4937 12.2959 -10.865 10.1575 -10.8644 7.99435L15.1356 8.00213C15.1359 7.18389 14.9954 6.37503 14.7235 5.61019L-9.7749 14.3181ZM-4.5034 0.207784C-10.6075 3.73199 -11.1844 10.3528 -9.77489 14.3181L14.7235 5.61018C16.528 10.6868 15.6221 18.6105 8.49658 22.7245L-4.5034 0.207784ZM7.99662 0.536251C4.02881 -2.02598 -0.802433 -1.92897 -4.5034 0.207788L8.49659 22.7245C4.11107 25.2564 -1.53923 25.3283 -6.10784 22.3781L7.99662 0.536251ZM24.3542 -1.40285C25.4681 0.534674 26.2246 2.64704 26.5969 4.8335L0.965824 9.19776C1.10663 10.0247 1.39276 10.8237 1.81415 11.5566L24.3542 -1.40285ZM17.4568 -8.32297C20.3237 -6.66201 22.7026 -4.27525 24.3542 -1.40285L1.81415 11.5566C2.43883 12.6431 3.33866 13.5459 4.42308 14.1742L17.4568 -8.32297ZM8.02271 -10.8645C11.336 -10.8605 14.5899 -9.98393 17.4568 -8.32297L4.42308 14.1742C5.5075 14.8024 6.73827 15.134 7.99154 15.1355L8.02271 -10.8645ZM-1.41746 -8.3456C1.45345 -9.99968 4.70938 -10.8684 8.02271 -10.8645L7.99154 15.1355C9.24481 15.137 10.4764 14.8084 11.5623 14.1827L-1.41746 -8.3456ZM-8.33138 -1.44203C-6.67299 -4.31046 -4.28837 -6.69152 -1.41746 -8.3456L11.5623 14.1827C12.6482 13.5571 13.5502 12.6564 14.1775 11.5715L-8.33138 -1.44203ZM-10.5967 4.83345C-10.2219 2.63202 -9.4576 0.505953 -8.33137 -1.44204L14.1775 11.5715C14.6035 10.8346 14.8926 10.0304 15.0344 9.19778L-10.5967 4.83345ZM3.66487 19.9349C8.18617 19.4289 11.8014 16.0983 12.756 11.7481L-12.6398 6.1752C-11.2319 -0.240513 -5.88635 -5.15836 0.77276 -5.90371L3.66487 19.9349ZM13.0001 8.00151C13.0002 7.79954 12.988 7.59831 12.9638 7.39896L-12.8476 10.5244C-12.949 9.68718 -13.0002 8.84211 -12.9999 7.99369L13.0001 8.00151ZM12.3287 10.5026C12.7683 9.74232 12.9998 8.87969 13.0001 8.0015L-12.9999 7.9937C-12.9988 4.3053 -12.0263 0.682246 -10.1801 -2.5109L12.3287 10.5026ZM10.4962 12.3324C11.2571 11.894 11.8892 11.2629 12.3287 10.5026L-10.1801 -2.5109C-8.33403 -5.70405 -5.67946 -8.35464 -2.48355 -10.196L10.4962 12.3324ZM7.9941 13C8.87229 13.001 9.73527 12.7708 10.4962 12.3324L-2.48356 -10.196C0.712356 -12.0373 4.33687 -13.0044 8.02527 -13L7.9941 13ZM5.49361 12.3264C6.25348 12.7666 7.11591 12.9989 7.9941 13L8.02527 -13C11.7137 -12.9956 15.3358 -12.0198 18.5273 -10.1708L5.49361 12.3264ZM3.66548 10.4922C4.1032 11.2535 4.73373 11.8861 5.49361 12.3264L18.5273 -10.1708C21.7188 -8.32179 24.367 -5.66484 26.2055 -2.46728L3.66548 10.4922ZM3.0001 7.98951C2.99826 8.8677 3.22775 9.73088 3.66548 10.4922L26.2055 -2.46728C28.0439 0.730284 29.0078 4.35566 29 8.04406L3.0001 7.98951ZM3.03639 7.39862C3.0127 7.59418 3.00052 7.7915 3.0001 7.98951L29 8.04406C28.9983 8.87601 28.9471 9.70467 28.8476 10.5258L3.03639 7.39862ZM3 9.49997C3 10.2574 3.08237 11.0106 3.24355 11.7459L28.6405 6.17854C28.8776 7.2602 29 8.37332 29 9.49997H3ZM5.99939 2.15213C4.15731 4.03256 3 6.64413 3 9.49997H29C29 13.7179 27.2981 17.5643 24.5726 20.3465L5.99939 2.15213ZM25.7962 18.9001C24.5277 20.6428 22.921 21.9997 21.1642 22.9483L8.81135 0.0702378C7.28546 0.89413 5.88345 2.07683 4.77576 3.59851L25.7962 18.9001ZM13.5 -1.00003C11.1746 -1.00003 8.99152 -0.228725 7.24359 1.06766L22.732 21.9509C20.1526 23.8639 16.9401 25 13.5 25V-1.00003ZM24 9.49997C24 3.70098 19.299 -1.00003 13.5 -1.00003V25C4.93959 25 -2 18.0604 -2 9.49997H24ZM13.5 20C19.299 20 24 15.299 24 9.49997H-2C-2 0.939561 4.93959 -6.00003 13.5 -6.00003V20ZM12.3344 19.9348C12.7215 19.9782 13.1107 20 13.5 20V-6.00003C14.0796 -6.00003 14.6565 -5.96764 15.2284 -5.90359L12.3344 19.9348ZM7.24358 1.06766C6.7998 1.3968 6.38395 1.75956 5.99938 2.15214L24.5726 20.3465C24.0034 20.9276 23.3881 21.4643 22.732 21.9509L7.24358 1.06766ZM27.403 16.033C26.9837 17.0457 26.4454 18.0084 25.7962 18.9001L4.77577 3.59849C4.20949 4.37642 3.7424 5.21293 3.38036 6.08739L27.403 16.033ZM28.8476 10.5258C28.6183 12.4191 28.1321 14.2718 27.403 16.0329L3.38035 6.08741C3.20675 6.50673 3.09101 6.9478 3.03639 7.39862L28.8476 10.5258ZM15.2284 -5.90358C21.8881 -5.15766 27.2338 -0.238457 28.6405 6.17854L3.24355 11.7459C4.19734 16.0969 7.81264 19.4284 12.3343 19.9348L15.2284 -5.90358ZM0.864593 7.98503C0.863737 8.39287 0.897857 8.79859 0.965824 9.19776L26.5969 4.8335C26.7766 5.88871 26.8668 6.96122 26.8645 8.03958L0.864593 7.98503ZM1.28242 5.59408C1.00873 6.35826 0.86631 7.16678 0.864593 7.98503L26.8645 8.03958C26.86 10.2027 26.4835 12.3402 25.7599 14.3607L1.28242 5.59408ZM7.4683 22.7232C0.352657 18.5922 -0.53421 10.6663 1.28242 5.59408L25.7599 14.3607C27.1788 10.3988 26.6179 3.77662 20.5222 0.237785L7.4683 22.7232ZM21.1642 22.9483C16.7708 25.3205 11.5812 25.111 7.46827 22.7232L20.5223 0.2378C17.0487 -1.77877 12.6171 -1.98462 8.81139 0.0702151L21.1642 22.9483ZM9.8893 2.0402C9.62048 1.77392 9.33698 1.52193 9.03988 1.28547L-7.1511 21.6288C-7.59052 21.2791 -8.01003 20.9062 -8.40792 20.5121L9.8893 2.0402ZM10.7671 3.00138C9.95374 2.0159 9.01176 1.19178 7.99656 0.536218L-6.10779 22.3781C-7.27456 21.6246 -8.35422 20.6796 -9.28567 19.5509L10.7671 3.00138Z" fill="url(#paint0_linear_3_13)" mask="url(#path-1-inside-1_3_13)"/>
<defs>
<linearGradient id="paint0_linear_3_13" x1="2" y1="3.5" x2="16.5" y2="10.5" gradientUnits="userSpaceOnUse">
<stop offset="0.00530502" stop-color="#00D1FF" stop-opacity="0.74"/>
<stop offset="0.239583" stop-color="#587993" stop-opacity="0.71"/>
<stop offset="0.450966" stop-color="#7F4ABD"/>
<stop offset="0.901042" stop-color="#FF00E5"/>
</linearGradient>
</defs>
</svg>
