<svg width="601" height="196" viewBox="0 0 601 196" fill="none" xmlns="http://www.w3.org/2000/svg">
<path d="M331.316 152V94.5455H345.203V140.722H369.105V152H331.316ZM398.08 94.5455V152H384.194V94.5455H398.08ZM445.754 111.771C445.567 109.713 444.735 108.114 443.257 106.973C441.798 105.814 439.713 105.234 437.001 105.234C435.206 105.234 433.71 105.468 432.513 105.935C431.316 106.403 430.418 107.048 429.819 107.871C429.221 108.675 428.912 109.601 428.894 110.648C428.856 111.509 429.025 112.266 429.399 112.921C429.791 113.575 430.352 114.155 431.082 114.66C431.83 115.146 432.728 115.577 433.775 115.951C434.822 116.325 436.001 116.652 437.31 116.933L442.247 118.055C445.09 118.672 447.596 119.495 449.766 120.523C451.954 121.552 453.787 122.777 455.264 124.199C456.761 125.62 457.892 127.256 458.659 129.108C459.426 130.96 459.818 133.036 459.837 135.336C459.818 138.964 458.902 142.078 457.088 144.678C455.274 147.278 452.665 149.269 449.261 150.653C445.876 152.037 441.789 152.729 437.001 152.729C432.195 152.729 428.005 152.009 424.433 150.569C420.861 149.129 418.083 146.941 416.101 144.005C414.118 141.068 413.099 137.356 413.043 132.867H426.341C426.453 134.719 426.949 136.262 427.828 137.496C428.707 138.73 429.913 139.666 431.447 140.301C432.999 140.937 434.794 141.255 436.833 141.255C438.703 141.255 440.293 141.003 441.602 140.498C442.93 139.993 443.949 139.292 444.66 138.394C445.371 137.496 445.735 136.467 445.754 135.308C445.735 134.223 445.399 133.297 444.744 132.531C444.089 131.745 443.08 131.072 441.714 130.511C440.368 129.931 438.647 129.398 436.552 128.912L430.549 127.509C425.574 126.368 421.656 124.526 418.794 121.982C415.933 119.42 414.511 115.96 414.53 111.602C414.511 108.049 415.465 104.935 417.391 102.26C419.318 99.5858 421.983 97.5005 425.387 96.0043C428.791 94.508 432.672 93.7599 437.029 93.7599C441.48 93.7599 445.343 94.5174 448.616 96.0323C451.907 97.5285 454.46 99.6326 456.274 102.344C458.088 105.056 459.014 108.198 459.052 111.771H445.754ZM523.649 94.5455V152H511.866L489.002 118.84H488.637V152H474.751V94.5455H486.702L509.313 127.649H509.79V94.5455H523.649Z" fill="url(#paint0_linear_35_38)"/>
<g clip-path="url(#clip0_35_38)">
<mask id="mask0_35_38" style="mask-type:alpha" maskUnits="userSpaceOnUse" x="0" y="0" width="256" height="196">
<path fill-rule="evenodd" clip-rule="evenodd" d="M11.8048 184.178C10.9101 183.066 10.1561 181.792 9.58169 180.359C5.21814 169.484 2.3058 158.052 0.925964 146.374C0.319593 149.206 0 152.148 0 155.166C0 166.512 4.5153 176.777 11.8048 184.178ZM15.0512 187.134C21.8554 192.683 30.4717 196 39.8438 196C61.8488 196 79.6875 177.718 79.6875 155.166C79.6875 132.615 61.8488 114.333 39.8438 114.333C38.3287 114.333 36.8335 114.42 35.3623 114.588C34.4846 119.871 34.0379 125.239 34.0363 130.638C34.0331 141.621 35.8726 152.479 39.4343 162.748C42.582 171.823 39.9599 182.465 31.8207 187.28C26.3657 190.507 19.8388 190.301 15.0512 187.134ZM219.641 114.589C217.796 103.486 214.049 92.7604 208.528 82.9225C200.346 68.3377 188.56 56.2187 174.355 47.785C160.151 39.3512 144.03 34.9002 127.613 34.8802C111.197 34.8599 95.0658 39.2712 80.8417 47.67C66.6175 56.0687 54.8028 68.1588 46.5863 82.7236C41.0064 92.6144 37.2196 103.41 35.3623 114.588C18.3267 116.542 4.53806 129.505 0.925964 146.374C0.310504 141.165 -9.11951e-05 135.907 0.00145912 130.627C0.00817715 107.678 5.91289 85.1339 17.1215 65.2656C28.33 45.397 44.447 28.9044 63.8507 17.4473C83.2545 5.99015 105.26 -0.0274191 127.654 9.39222e-05C150.048 0.0276069 172.041 6.09924 191.417 17.6041C210.794 29.1088 226.872 45.641 238.035 65.537C249.196 85.4328 255.048 107.991 255.002 130.941C254.99 136.118 254.68 141.274 254.076 146.383C254.681 149.212 255 152.151 255 155.166C255 166.29 250.66 176.374 243.621 183.739C242.339 185.543 240.707 186.966 238.868 187.985C232.243 193.021 224.038 196 215.156 196C193.151 196 175.312 177.718 175.312 155.166C175.312 132.615 193.151 114.333 215.156 114.333C216.672 114.333 218.168 114.42 219.641 114.589ZM238.868 187.985C240.561 186.698 242.15 185.279 243.621 183.739C244.28 182.809 244.848 181.779 245.305 180.65C249.731 169.692 252.683 158.163 254.076 146.383C250.467 129.51 236.678 116.544 219.641 114.589C220.53 119.946 220.978 125.392 220.967 130.868C220.945 141.851 219.078 152.704 215.493 162.964C212.324 172.032 214.922 182.679 223.05 187.515C228.145 190.546 234.184 190.576 238.868 187.985ZM11.8048 184.178C12.8333 185.222 13.9171 186.208 15.0512 187.134C13.8433 186.334 12.7461 185.346 11.8048 184.178Z" fill="white"/>
</mask>
<g mask="url(#mask0_35_38)">
<path fill-rule="evenodd" clip-rule="evenodd" d="M11.8048 184.178C10.9101 183.066 10.1561 181.792 9.58169 180.359C5.21814 169.484 2.3058 158.052 0.925964 146.374C0.319593 149.206 0 152.148 0 155.166C0 166.512 4.5153 176.777 11.8048 184.178ZM15.0512 187.134C21.8554 192.683 30.4717 196 39.8438 196C61.8488 196 79.6875 177.718 79.6875 155.166C79.6875 132.615 61.8488 114.333 39.8438 114.333C38.3287 114.333 36.8335 114.42 35.3623 114.588C34.4846 119.871 34.0379 125.239 34.0363 130.638C34.0331 141.621 35.8726 152.479 39.4343 162.748C42.582 171.823 39.9599 182.465 31.8207 187.28C26.3657 190.507 19.8388 190.301 15.0512 187.134ZM219.641 114.589C217.796 103.486 214.049 92.7604 208.528 82.9225C200.346 68.3377 188.56 56.2187 174.355 47.785C160.151 39.3512 144.03 34.9002 127.613 34.8802C111.197 34.8599 95.0658 39.2712 80.8417 47.67C66.6175 56.0687 54.8028 68.1588 46.5863 82.7236C41.0064 92.6144 37.2196 103.41 35.3623 114.588C18.3267 116.542 4.53806 129.505 0.925964 146.374C0.310504 141.165 -9.11951e-05 135.907 0.00145912 130.627C0.00817715 107.678 5.91289 85.1339 17.1215 65.2656C28.33 45.397 44.447 28.9044 63.8507 17.4473C83.2545 5.99015 105.26 -0.0274191 127.654 9.39222e-05C150.048 0.0276069 172.041 6.09924 191.417 17.6041C210.794 29.1088 226.872 45.641 238.035 65.537C249.196 85.4328 255.048 107.991 255.002 130.941C254.99 136.118 254.68 141.274 254.076 146.383C254.681 149.212 255 152.151 255 155.166C255 166.29 250.66 176.374 243.621 183.739C242.339 185.543 240.707 186.966 238.868 187.985C232.243 193.021 224.038 196 215.156 196C193.151 196 175.312 177.718 175.312 155.166C175.312 132.615 193.151 114.333 215.156 114.333C216.672 114.333 218.168 114.42 219.641 114.589ZM238.868 187.985C240.561 186.698 242.15 185.279 243.621 183.739C244.28 182.809 244.848 181.779 245.305 180.65C249.731 169.692 252.683 158.163 254.076 146.383C250.467 129.51 236.678 116.544 219.641 114.589C220.53 119.946 220.978 125.392 220.967 130.868C220.945 141.851 219.078 152.704 215.493 162.964C212.324 172.032 214.922 182.679 223.05 187.515C228.145 190.546 234.184 190.576 238.868 187.985ZM11.8048 184.178C12.8333 185.222 13.9171 186.208 15.0512 187.134C13.8433 186.334 12.7461 185.346 11.8048 184.178Z" fill="#302727"/>
<path d="M9.58168 180.359L201.201 99.6086V99.6091L9.58168 180.359ZM34.0363 130.638L-173.151 130.574V130.574L34.0363 130.638ZM39.4343 162.748L-155.787 233.862H-155.787L39.4343 162.748ZM31.8206 187.28L-71.7729 3.39395V3.39389L31.8206 187.28ZM208.528 82.9226L28.913 188.758L208.528 82.9226ZM80.8417 47.6701L184.274 231.651L80.8417 47.6701ZM46.5863 82.7237L225.954 189.001L46.5863 82.7237ZM0.00146484 130.628L207.189 130.691V130.691L0.00146484 130.628ZM63.8507 17.4474L167.283 201.429L63.8507 17.4474ZM127.654 0.000183105L127.903 -212.333L127.654 0.000183105ZM191.417 17.6042L295.279 -166.123L191.417 17.6042ZM238.035 65.5371L58.4186 171.373L238.035 65.5371ZM255.002 130.941L47.8141 130.495L255.002 130.941ZM245.305 180.65L436.735 261.871V261.872L245.305 180.65ZM220.967 130.868L428.153 131.313L220.967 130.868ZM215.493 162.964L410.548 234.558L215.493 162.964ZM223.05 187.515L327.073 3.88391L327.074 3.88416L223.05 187.515ZM201.201 99.6091C193.91 81.435 183.952 64.3605 171.601 49.0228L-147.991 319.331C-162.132 301.771 -173.598 282.149 -182.038 261.111L201.201 99.6091ZM206.611 120.849C205.748 113.55 203.928 106.406 201.201 99.6086L-182.038 261.111C-193.492 232.564 -201.138 202.555 -204.759 171.899L206.611 120.849ZM203.299 191.886C205.871 179.866 207.188 167.551 207.188 155.166H-207.188C-207.188 136.745 -205.232 118.545 -201.447 100.862L203.299 191.886ZM207.188 155.166C207.188 107.565 187.992 64.1648 157.612 33.3243L-134.002 335.031C-178.961 289.389 -207.188 225.459 -207.188 155.166H207.188ZM144.073 20.9959C115.527 -2.28706 79.0008 -16.3337 39.8438 -16.3337V408.333C-18.0573 408.333 -71.8166 387.654 -113.97 353.271L144.073 20.9959ZM39.8438 -16.3337C-52.5777 -16.3337 -127.5 60.4494 -127.5 155.166H286.875C286.875 294.987 176.275 408.333 39.8438 408.333V-16.3337ZM-127.5 155.166C-127.5 249.884 -52.5777 326.667 39.8438 326.667V-98.0004C176.275 -98.0004 286.875 15.3462 286.875 155.166H-127.5ZM39.8438 326.667C46.0477 326.667 52.2465 326.311 58.4092 325.603L12.3155 -96.4272C21.4203 -97.4715 30.6097 -98.0004 39.8438 -98.0004V326.667ZM-173.151 130.574C-173.147 113.209 -171.709 95.94 -168.885 78.9461L239.611 150.231C240.679 143.802 241.222 137.269 241.224 130.702L-173.151 130.574ZM-155.787 233.862C-167.243 200.833 -173.161 165.906 -173.151 130.574L241.224 130.702C241.228 117.337 238.989 104.126 234.656 91.6332L-155.787 233.862ZM-71.7729 3.39389C-169.057 60.9559 -178.251 169.096 -155.787 233.862L234.656 91.633C263.415 174.551 248.977 303.972 135.414 371.167L-71.7729 3.39389ZM127.446 8.75887C64.2092 -33.0909 -12.7888 -31.5064 -71.7729 3.39395L135.414 371.167C65.5202 412.521 -24.5315 413.696 -97.3437 365.509L127.446 8.75887ZM388.145 -22.9131C405.898 8.73309 417.955 43.2351 423.888 78.9473L15.3928 150.23C17.6369 163.737 22.1971 176.787 28.913 188.758L388.145 -22.9131ZM278.218 -135.942C323.909 -108.813 361.823 -69.829 388.145 -22.9131L28.913 188.758C38.8689 206.504 53.2099 221.25 70.4929 231.512L278.218 -135.942ZM127.862 -177.453C180.667 -177.388 232.527 -163.071 278.218 -135.942L70.4929 231.512C87.7758 241.773 107.391 247.189 127.365 247.213L127.862 -177.453ZM-22.5908 -136.311C23.1644 -163.328 75.0557 -177.517 127.862 -177.453L127.365 247.213C147.339 247.238 166.968 241.871 184.274 231.651L-22.5908 -136.311ZM-132.781 -23.5531C-106.351 -70.4041 -68.3459 -109.295 -22.5908 -136.311L184.274 231.651C201.581 221.433 215.956 206.721 225.954 189.001L-132.781 -23.5531ZM-168.885 78.9464C-162.912 42.9898 -150.731 8.26399 -132.781 -23.5532L225.954 189.001C232.743 176.965 237.351 163.83 239.611 150.23L-168.885 78.9464ZM58.4088 325.603C130.467 317.339 188.085 262.939 203.299 191.886L-201.447 100.862C-179.008 -3.92828 -93.8137 -84.2531 12.3159 -96.4272L58.4088 325.603ZM207.189 130.691C207.191 127.393 206.996 124.106 206.611 120.85L-204.759 171.899C-206.375 158.224 -207.191 144.421 -207.186 130.564L207.189 130.691ZM196.489 171.543C203.495 159.125 207.184 145.035 207.189 130.691L-207.186 130.564C-207.168 70.32 -191.669 11.1434 -162.245 -41.0113L196.489 171.543ZM167.283 201.429C179.41 194.269 189.484 183.961 196.489 171.543L-162.245 -41.0113C-132.824 -93.1661 -90.5164 -136.459 -39.5816 -166.535L167.283 201.429ZM127.406 212.333C141.402 212.35 155.156 208.59 167.283 201.429L-39.5817 -166.535C11.3532 -196.609 69.1189 -212.405 127.903 -212.333L127.406 212.333ZM87.5544 201.331C99.6649 208.521 113.41 212.315 127.406 212.333L127.903 -212.333C186.687 -212.261 244.414 -196.323 295.279 -166.123L87.5544 201.331ZM58.4186 171.373C65.3947 183.807 75.4438 194.14 87.5544 201.331L295.279 -166.123C346.143 -135.922 388.349 -92.5256 417.65 -40.2988L58.4186 171.373ZM47.8141 130.495C47.7848 144.839 51.4423 158.938 58.4186 171.373L417.65 -40.2988C446.95 11.9281 462.312 71.1425 462.188 131.386L47.8141 130.495ZM48.3925 120.844C48.0149 124.038 47.8208 127.261 47.8141 130.495L462.188 131.386C462.16 144.975 461.344 158.51 459.759 171.921L48.3925 120.844ZM47.8125 155.166C47.8125 167.538 49.1253 179.84 51.6941 191.85L456.458 100.916C460.237 118.583 462.188 136.764 462.188 155.166H47.8125ZM95.6153 35.1515C66.2571 65.8652 47.8125 108.521 47.8125 155.166H462.188C462.188 224.059 435.063 286.884 391.626 332.326L95.6153 35.1515ZM411.127 308.702C390.91 337.166 365.303 359.329 337.304 374.822L140.431 1.14731C116.112 14.6042 93.7675 33.9216 76.1137 58.7757L411.127 308.702ZM215.156 -16.3337C178.095 -16.3337 143.302 -3.73576 115.445 17.4385L362.291 358.531C321.182 389.777 269.983 408.333 215.156 408.333V-16.3337ZM382.5 155.166C382.5 60.4494 307.578 -16.3337 215.156 -16.3337V408.333C78.7247 408.333 -31.875 294.987 -31.875 155.166H382.5ZM215.156 326.667C307.578 326.667 382.5 249.884 382.5 155.166H-31.875C-31.875 15.3463 78.7247 -98.0004 215.156 -98.0004V326.667ZM196.579 325.602C202.749 326.311 208.952 326.667 215.156 326.667V-98.0004C224.394 -98.0004 233.588 -97.4714 242.703 -96.4252L196.579 325.602ZM115.445 17.4385C108.372 22.8145 101.744 28.7396 95.6151 35.1517L391.626 332.326C382.554 341.818 372.748 350.584 362.291 358.531L115.445 17.4385ZM436.735 261.872C430.053 278.413 421.474 294.137 411.127 308.702L76.1138 58.7754C67.0887 71.4816 59.6445 85.1446 53.8745 99.4275L436.735 261.872ZM459.759 171.921C456.104 202.845 448.355 233.106 436.735 261.871L53.8743 99.4278C51.1076 106.277 49.263 113.481 48.3925 120.844L459.759 171.921ZM242.703 -96.4251C348.842 -84.2417 434.039 -3.89471 456.458 100.916L51.6941 191.85C66.8951 262.916 124.514 317.331 196.578 325.602L242.703 -96.4251ZM13.7795 130.422C13.7658 137.084 14.3096 143.71 15.3928 150.23L423.888 78.9473C426.752 96.1824 428.19 113.7 428.153 131.313L13.7795 130.422ZM20.4386 91.3701C16.0766 103.852 13.8068 117.057 13.7795 130.422L428.153 131.313C428.081 166.644 422.081 201.557 410.548 234.558L20.4386 91.3701ZM119.026 371.146C5.62047 303.673 -8.51398 174.216 20.4386 91.3701L410.548 234.558C433.162 169.847 424.223 61.6849 327.073 3.88391L119.026 371.146ZM337.304 374.822C267.285 413.568 184.575 410.146 119.026 371.146L327.074 3.88416C271.714 -29.0532 201.085 -32.4154 140.432 1.14694L337.304 374.822ZM157.611 33.3233C153.326 28.9741 148.808 24.8583 144.073 20.9961L-113.971 353.271C-120.974 347.559 -127.66 341.468 -134.001 335.031L157.611 33.3233ZM171.601 49.0226C158.638 32.9265 143.625 19.4658 127.445 8.75832L-97.3429 365.509C-115.938 353.202 -133.145 337.767 -147.99 319.331L171.601 49.0226Z" fill="url(#paint1_linear_35_38)"/>
</g>
</g>
<defs>
<linearGradient id="paint0_linear_35_38" x1="309.053" y1="123" x2="601.548" y2="174.914" gradientUnits="userSpaceOnUse">
<stop stop-color="#00D1FF"/>
<stop offset="0.520833" stop-color="#A20E9C" stop-opacity="0.71"/>
<stop offset="1" stop-color="#DC2B36" stop-opacity="0.46"/>
</linearGradient>
<linearGradient id="paint1_linear_35_38" x1="31.875" y1="57.1668" x2="265.079" y2="167.02" gradientUnits="userSpaceOnUse">
<stop offset="0.00530502" stop-color="#00D1FF" stop-opacity="0.74"/>
<stop offset="0.239583" stop-color="#587993" stop-opacity="0.71"/>
<stop offset="0.450966" stop-color="#7F4ABD"/>
<stop offset="0.901042" stop-color="#FF00E5"/>
</linearGradient>
<clipPath id="clip0_35_38">
<rect width="255" height="196" fill="white"/>
</clipPath>
</defs>
</svg>
